<svg width="100" height="24" viewBox="0 0 100 24" fill="none" xmlns="http://www.w3.org/2000/svg">
<path fill-rule="evenodd" clip-rule="evenodd" d="M99.4959 18.9734C95.3317 25.8963 88.7368 23.8875 86.7561 22.3147C85.9132 22.8755 84.4351 24.1048 82.4641 23.9629C78.2666 23.6607 76.7634 17.7788 76.7634 17.7788C76.7936 17.8023 75.5131 18.2121 74.821 18.2048C74.8121 19.9297 73.2915 24.0501 69.1878 23.9974C64.5827 23.9385 63.6466 17.2112 63.6466 17.2112C63.6466 17.2112 63.1883 17.8351 61.4459 18.4566C61.5336 17.1315 61.4695 23.7957 55.9501 23.8937C51.5868 23.9712 50.4089 17.1074 50.4089 17.1074C50.4089 17.1074 49.652 17.8785 48.185 18.1459C48.2782 16.7991 48.1267 23.9163 42.6067 23.8937C38.8764 23.8785 37.6016 19.6656 37.7007 19.0809C37.8273 18.3357 36.44 23.9985 32.8166 23.9103C31.3213 23.8672 30.2065 22.8056 29.507 21.3903C28.5705 22.441 27.211 23.9103 25.6858 23.9103C22.948 23.9103 21.7411 21.6649 21.9455 15.2517C21.9629 14.4911 21.907 14.1919 21.1358 14.0781C20.673 14.0024 20.199 13.8591 19.6975 13.7835C19.5367 14.3094 18.1733 23.7391 13.4852 23.9181C11.9124 23.9781 11.0524 22.6422 10.3461 21.6506C9.26351 23.055 7.83437 23.9629 5.79843 23.9629C2.34972 23.9629 0 21.229 0 17.8567C0 14.4843 2.34972 11.7508 5.79843 11.7508C6.4082 11.7508 6.57938 11.8365 7.13643 11.9959C5.99082 1.768 8.6963 0.169531 11.063 0.169531C13.3352 0.169531 17.217 5.34074 11.755 18.4577C12.9676 22.3701 15.5819 22.1488 16.8382 14.0949C17.0938 12.4577 16.4102 10.2485 17.4736 9.94017C19.4174 9.37666 19.6236 11.0674 20.5351 11.3491C21.4988 11.6468 22.0613 11.6177 22.9865 11.8072C24.5674 12.1099 25.1843 12.9426 24.9917 14.7974C24.7604 17.1442 24.3557 20.5599 25.5894 20.9763C26.4791 21.2787 28.1034 19.4695 28.3884 18.4797C28.6733 17.4898 28.7329 17.151 28.7582 16.425C28.7967 14.8732 28.8451 13.7358 29.115 12.5622C29.2305 12.1081 29.3621 11.8074 29.8861 11.7869C30.3172 11.7761 31.1056 11.6488 31.4527 11.9137C31.9153 12.2545 31.8574 12.6003 31.8043 13.5105C31.2663 26.4877 35.4071 20.0094 36.6417 14.8222C36.2021 8.95667 36.5039 0.276938 40.2523 0.131364C42.2018 0.0556564 43.0636 1.58706 43.1584 2.73011C43.4266 5.95852 41.9246 11.3063 39.9493 14.9027C38.8204 22.2409 44.8853 23.6918 45.8552 17.8345C44.2684 17.0947 42.5535 14.1003 43.949 12.641C44.732 11.822 47.9915 12.9985 48.0448 15.5646C49.6437 15.1453 49.8572 14.2601 49.8793 14.4068C49.4398 8.54125 49.8475 0.277014 53.5962 0.131439C55.5454 0.0557314 56.4071 1.58714 56.5019 2.73019C56.77 5.95858 55.2681 11.3064 53.293 14.9028C52.1639 22.2409 58.229 23.6919 59.1986 17.8346C58.0238 17.6123 55.5438 14.4273 56.9747 12.6411C57.7394 11.6865 60.9869 13.6716 61.3505 15.6495C62.8865 15.2233 63.0951 14.3663 63.1171 14.5105C62.6775 8.6452 63.0851 0.380964 66.8338 0.235389C68.783 0.159682 69.6447 1.69109 69.7395 2.83414C70.0077 6.06253 68.5057 11.4104 66.5304 15.0068C65.4016 22.345 71.4665 23.7957 72.4364 17.9384C70.8219 17.6748 68.5275 14.3119 70.3741 12.5915C71.1119 11.9041 73.9311 13.6884 74.591 15.7241C75.508 15.6895 76.0787 15.3794 76.2011 15.3482C74.7372 8.46241 75.827 0.200505 79.8595 0.131539C82.0391 0.0942999 84.1699 1.28697 83.2347 7.83786C82.3419 14.0882 79.1327 16.7112 79.1402 16.7513C79.3269 17.5001 80.9737 23.7666 85.1204 20.4602C84.9058 19.9836 84.6909 19.4967 84.5708 18.9068C83.8834 15.4707 85.2334 11.5896 88.9028 10.9624C91.0052 10.603 92.9856 11.6067 93.2987 13.8693C93.8139 17.5718 90.4044 20.2532 89.1079 20.8348C88.5272 20.5113 94.3718 24.1869 97.8404 16.821C98.0415 16.4004 98.284 16.436 98.5981 16.6528C98.82 16.8059 100.084 17.9798 99.4959 18.9734ZM8.30706 16.947C8.13058 16.4296 7.76839 15.2895 7.64031 14.7956C6.93494 14.1941 6.43147 14.0964 5.52607 14.0964C3.51399 14.0964 2.32971 15.9206 2.32971 17.8876C2.32971 19.8545 3.61989 21.6789 5.63199 21.6789C7.3757 21.6789 8.70282 20.5164 9.10771 18.8706C8.82431 18.2291 8.54318 17.6395 8.30706 16.947ZM11.0137 2.87692C9.59991 2.87692 9.12032 6.18403 9.21338 9.00531C9.29571 11.4997 10.0065 13.6956 10.3753 14.6796C10.4689 14.8029 10.4515 14.7227 10.5351 14.8534C12.9899 9.57934 11.9717 2.87692 11.0137 2.87692ZM40.4542 2.9808C38.627 2.77531 38.6388 10.2394 38.8656 11.9137C39.8146 10.425 41.4632 3.38164 40.4542 2.9808ZM53.7977 2.9808C51.9704 2.77531 51.9822 10.2394 52.2092 11.9137C53.1581 10.425 54.8068 3.38164 53.7977 2.9808ZM67.0355 3.08465C65.2081 2.87915 65.2198 10.3433 65.4468 12.0177C66.3957 10.5288 68.0444 3.48546 67.0355 3.08465ZM80.0612 2.54386C77.2142 3.10446 77.8771 12.4124 78.3096 14.0448C81.6631 9.52833 81.7322 2.37421 80.0612 2.54386ZM90.731 14.1756C90.5862 13.5821 89.8625 13.2649 89.3629 13.3431C87.9334 13.5345 86.547 15.2803 87.0837 17.9381C87.2031 18.5301 87.5021 19.0749 87.4972 19.0568C90.6964 16.9522 90.9683 15.2938 90.731 14.1756ZM30.4465 9.73241C30.0379 9.73249 29.6385 9.61375 29.2988 9.39123C28.959 9.1687 28.6942 8.85239 28.5378 8.48227C28.3813 8.11216 28.3404 7.70488 28.4202 7.31195C28.4997 6.91901 28.6965 6.55807 28.9854 6.27476C29.2743 5.99146 29.6423 5.79852 30.043 5.72035C30.4437 5.64218 30.8591 5.68228 31.2366 5.8356C31.6141 5.98891 31.9366 6.24855 32.1636 6.58166C32.3906 6.91478 32.5117 7.30642 32.5117 7.70704C32.5117 7.973 32.4584 8.23636 32.3545 8.48208C32.2508 8.7278 32.0987 8.95107 31.9069 9.13914C31.715 9.32722 31.4874 9.47641 31.2368 9.5782C30.9863 9.68 30.7177 9.7324 30.4465 9.73241Z" fill="#0D0C22"/>
</svg>
